<svg width="98" height="77" viewBox="0 0 98 77" fill="none" xmlns="http://www.w3.org/2000/svg">
<path d="M71.722 61.3983H10.982C8.4405 61.3983 5.05958 59.402 4.09194 57.2315C3.032 55.5921 2.42912 53.7016 2.34512 51.7537C2.26113 49.8059 2.69904 47.8708 3.61395 46.1471C4.68176 44.234 6.28178 42.6687 8.22171 41.6392C10.1616 40.6097 12.3589 40.1598 14.5495 40.3437C16.3798 40.4365 16.7529 39.775 16.9861 38.2545C17.9229 32.5243 20.642 27.2312 24.7602 23.1208C28.8783 19.0105 34.1881 16.29 39.9413 15.3428H40.0812C46.5686 14.4362 53.1698 15.8245 58.7346 19.2658C59.2825 19.6024 59.8305 19.9623 60.3667 20.4265C63.4271 22.7238 65.9889 25.6139 67.898 28.9227L68.7841 30.3155" fill="#CAE3F6"/>
<path d="M42.7861 46.1355C43.1357 43.6737 44.2461 41.3812 45.9633 39.576C47.6804 37.7708 49.9193 36.5423 52.3693 36.0608C53.141 35.9449 53.9205 35.8867 54.701 35.8867C57.8011 35.8858 60.7901 37.0364 63.0833 39.1134C64.7013 40.6067 65.8682 42.5201 66.4526 44.6382" fill="#CAE3F6"/>
<path d="M59.1895 36.6294C62.687 31.2438 70.7895 29.2591 77.2482 30.5822C80.0885 31.1045 82.7104 32.4507 84.7846 34.4517C86.8588 36.4527 88.2928 39.0193 88.9066 41.8292C89.7226 45.3692 89.9908 46.7272 92.7422 48.6191C96.6594 51.3235 96.3796 57.3706 93.2085 60.2259C92.3573 60.94 91.2898 61.3488 90.1773 61.3865H69.1923" fill="#CAE3F6"/>
<path d="M71.7217 60.6787H10.9817C8.44022 60.6787 5.0593 58.6824 4.09166 56.5235C3.03185 54.8819 2.42911 52.9895 2.34512 51.0399C2.26114 49.0902 2.69892 47.1534 3.61367 45.4275C4.68148 43.5144 6.2815 41.9491 8.22143 40.9196C10.1614 39.8901 12.3586 39.4402 14.5492 39.6241C16.3795 39.717 16.7526 39.0554 16.9858 37.5465C17.9204 31.8142 20.6385 26.5185 24.7568 22.4059C28.8752 18.2933 34.1862 15.5711 39.9411 14.6232H40.081C46.568 13.7246 53.1666 15.1123 58.7343 18.5463C59.2822 18.8829 59.8302 19.2543 60.3665 19.707C63.4242 22.0071 65.9855 24.8965 67.8978 28.2031L68.7838 29.5959" stroke="#0A0B0B" stroke-width="4" stroke-miterlimit="10"/>
<path d="M42.7861 45.4156C43.1363 42.9553 44.2471 40.6646 45.9644 38.8613C47.6817 37.0581 49.9202 35.8318 52.3693 35.3526C53.1722 35.2379 53.9834 35.1913 54.7942 35.2133C57.8968 35.2111 60.8875 36.3665 63.1766 38.4516C64.7551 39.9374 65.8891 41.8297 66.4526 43.9184" stroke="#0A0B0B" stroke-width="4" stroke-miterlimit="10"/>
<path d="M59.1895 35.9216C62.687 30.5245 70.7895 28.5397 77.2482 29.8629C80.0879 30.3866 82.709 31.7333 84.783 33.734C86.8569 35.7348 88.2914 38.3007 88.9066 41.1098C89.7226 44.6615 89.9908 46.0079 92.7422 47.9114C96.6594 50.6042 96.3796 56.6513 93.2085 59.5181C92.3573 60.2323 91.2898 60.641 90.1773 60.6788H86.2718" stroke="#0A0B0B" stroke-width="4" stroke-miterlimit="10"/>
<path d="M75.9888 60.667H82.2726" stroke="#0A0B0B" stroke-width="4" stroke-miterlimit="10"/>
</svg>
