<svg width="98" height="81" viewBox="0 0 98 81" fill="none" xmlns="http://www.w3.org/2000/svg">
<path d="M71.722 49.3983H10.982C8.4405 49.3983 5.05958 47.402 4.09194 45.2315C3.032 43.5921 2.42912 41.7016 2.34512 39.7537C2.26113 37.8059 2.69904 35.8708 3.61395 34.1471C4.68176 32.234 6.28178 30.6687 8.22171 29.6392C10.1616 28.6097 12.3589 28.1598 14.5495 28.3437C16.3798 28.4365 16.7529 27.775 16.9861 26.2545C17.9229 20.5243 20.642 15.2312 24.7602 11.1208C28.8783 7.01046 34.1881 4.29002 39.9413 3.34278H40.0812C46.5686 2.43616 53.1698 3.8245 58.7346 7.26585C59.2825 7.60245 59.8305 7.96226 60.3667 8.42653C63.4271 10.7238 65.9889 13.6139 67.898 16.9227L68.7841 18.3155" fill="#CAE3F6"/>
<path d="M42.7861 34.1355C43.1357 31.6737 44.2461 29.3812 45.9633 27.576C47.6804 25.7708 49.9193 24.5423 52.3693 24.0608C53.141 23.9449 53.9205 23.8867 54.701 23.8867C57.8011 23.8858 60.7901 25.0364 63.0833 27.1134C64.7013 28.6067 65.8682 30.5201 66.4526 32.6382" fill="#CAE3F6"/>
<path d="M59.1895 24.6294C62.687 19.2438 70.7895 17.2591 77.2482 18.5822C80.0885 19.1045 82.7104 20.4507 84.7846 22.4517C86.8588 24.4527 88.2928 27.0193 88.9066 29.8292C89.7226 33.3692 89.9908 34.7272 92.7422 36.6191C96.6594 39.3235 96.3796 45.3706 93.2085 48.2259C92.3573 48.94 91.2898 49.3488 90.1773 49.3865H69.1923" fill="#CAE3F6"/>
<path d="M71.7217 48.6787H10.9817C8.44022 48.6787 5.0593 46.6824 4.09166 44.5235C3.03185 42.8819 2.42911 40.9895 2.34512 39.0399C2.26114 37.0902 2.69892 35.1534 3.61367 33.4275C4.68148 31.5144 6.2815 29.9491 8.22143 28.9196C10.1614 27.8901 12.3586 27.4402 14.5492 27.6241C16.3795 27.717 16.7526 27.0554 16.9858 25.5465C17.9204 19.8142 20.6385 14.5185 24.7568 10.4059C28.8752 6.29327 34.1862 3.57113 39.9411 2.6232H40.081C46.568 1.72455 53.1666 3.11232 58.7343 6.54628C59.2822 6.88287 59.8302 7.25429 60.3665 7.70695C63.4242 10.0071 65.9855 12.8965 67.8978 16.2031L68.7838 17.5959" stroke="#0A0B0B" stroke-width="4" stroke-miterlimit="10"/>
<path d="M42.7861 33.4156C43.1363 30.9553 44.2471 28.6646 45.9644 26.8613C47.6817 25.0581 49.9202 23.8318 52.3693 23.3526C53.1722 23.2379 53.9834 23.1913 54.7942 23.2133C57.8968 23.2111 60.8875 24.3665 63.1766 26.4516C64.7551 27.9374 65.8891 29.8297 66.4526 31.9184" stroke="#0A0B0B" stroke-width="4" stroke-miterlimit="10"/>
<path d="M59.1895 23.9216C62.687 18.5245 70.7895 16.5397 77.2482 17.8629C80.0879 18.3866 82.709 19.7333 84.783 21.734C86.8569 23.7348 88.2914 26.3007 88.9066 29.1098C89.7226 32.6615 89.9908 34.0079 92.7422 35.9114C96.6594 38.6042 96.3796 44.6513 93.2085 47.5181C92.3573 48.2323 91.2898 48.641 90.1773 48.6788H86.2718" stroke="#0A0B0B" stroke-width="4" stroke-miterlimit="10"/>
<path d="M75.9888 48.667H82.2726" stroke="#0A0B0B" stroke-width="4" stroke-miterlimit="10"/>
</svg>
